<svg width="499" height="595" viewBox="0 0 499 595" fill="none" xmlns="http://www.w3.org/2000/svg">
<g filter="url(#filter0_d_1057_9652)">
<path d="M10.8975 173.391C10.8975 138.592 111.963 110.381 236.634 110.381C289.673 110.381 338.439 115.487 376.969 124.034C429.006 135.577 462.371 153.396 462.371 173.391" stroke="#FFD807"/>
</g>
<g filter="url(#filter1_d_1057_9652)">
<path d="M10.8975 371.425C10.8975 336.625 111.963 308.414 236.634 308.414C289.673 308.414 338.439 313.52 376.969 322.067C429.006 333.61 462.371 351.43 462.371 371.425" stroke="#FFD807"/>
</g>
<g filter="url(#filter2_b_1057_9652)">
<path d="M239.776 240.916C238.61 240.916 237.435 240.903 236.269 240.903C195.279 240.903 156.844 243.714 123.725 248.62C122.507 248.803 121.307 248.985 120.107 249.167C119.584 249.252 119.052 249.33 118.529 249.414C117.612 249.557 116.694 249.707 115.786 249.857C115.357 249.928 114.937 249.993 114.508 250.065C113.299 250.267 112.108 250.468 110.916 250.67C110.41 250.755 109.913 250.846 109.407 250.93C108.515 251.087 107.632 251.243 106.758 251.399C106.338 251.477 105.926 251.549 105.506 251.627C104.34 251.842 103.183 252.056 102.034 252.278C101.554 252.369 101.074 252.46 100.593 252.557C99.7361 252.72 98.8873 252.889 98.0471 253.058C97.6441 253.136 97.2326 253.221 96.8297 253.299C95.698 253.527 94.5834 253.761 93.4774 253.995C93.023 254.093 92.5686 254.191 92.1142 254.288C91.2912 254.464 90.4853 254.64 89.6708 254.815C89.2764 254.9 88.8734 254.991 88.4791 255.076C87.3902 255.316 86.3185 255.564 85.2469 255.811C84.8182 255.909 84.3981 256.006 83.978 256.11C83.1806 256.299 82.3919 256.488 81.6031 256.676C81.2259 256.768 80.8486 256.859 80.48 256.95C79.434 257.21 78.3966 257.464 77.3678 257.731C76.9734 257.828 76.5876 257.932 76.2018 258.03C75.4302 258.232 74.6586 258.433 73.8955 258.635C73.544 258.726 73.1925 258.824 72.841 258.915C71.8379 259.188 70.8434 259.462 69.8574 259.735C69.4973 259.839 69.1372 259.937 68.7772 260.041C68.0313 260.256 67.2939 260.464 66.5652 260.679C66.2308 260.776 65.8965 260.874 65.5707 260.971C64.6104 261.258 63.6588 261.544 62.7243 261.837C62.3985 261.941 62.0813 262.039 61.7555 262.143C61.0353 262.37 60.3151 262.598 59.6121 262.826C59.312 262.924 59.0034 263.021 58.7033 263.119C57.7859 263.418 56.8857 263.717 55.9941 264.023C55.7026 264.121 55.4111 264.225 55.1196 264.323C54.4251 264.563 53.7478 264.804 53.0705 265.045C52.7876 265.149 52.5047 265.247 52.2217 265.344C51.3558 265.657 50.507 265.976 49.6583 266.294C49.4011 266.392 49.1524 266.49 48.8952 266.587C48.2351 266.841 47.5749 267.095 46.9319 267.355C46.6747 267.459 46.4175 267.557 46.1603 267.661C45.3458 267.986 44.5485 268.318 43.7597 268.65C43.5368 268.741 43.3139 268.839 43.091 268.936C42.4651 269.203 41.8392 269.477 41.2305 269.743C40.999 269.847 40.7675 269.952 40.5361 270.049C39.7816 270.388 39.0271 270.732 38.2984 271.077C38.1098 271.168 37.9211 271.26 37.7325 271.351C37.1409 271.63 36.5579 271.917 35.9749 272.203C35.7692 272.307 35.5548 272.411 35.3577 272.509C34.6546 272.86 33.9688 273.218 33.2914 273.576C33.1285 273.661 32.9742 273.745 32.8113 273.83C32.2626 274.129 31.7139 274.422 31.1824 274.728C30.9937 274.832 30.8051 274.936 30.6251 275.04C29.9821 275.405 29.3562 275.769 28.7475 276.14C28.6103 276.218 28.4903 276.303 28.3531 276.381C27.8473 276.693 27.3414 277.006 26.8527 277.324C26.6898 277.429 26.527 277.533 26.3641 277.637C25.7896 278.014 25.2238 278.392 24.6751 278.776C24.5722 278.847 24.4693 278.925 24.3664 278.997C23.9035 279.322 23.4491 279.654 23.0118 279.979C22.8746 280.084 22.7289 280.188 22.5917 280.298C22.0859 280.689 21.5886 281.079 21.1085 281.47C21.0228 281.535 20.9542 281.606 20.8684 281.671C20.4569 282.01 20.0625 282.355 19.6767 282.7C19.5567 282.804 19.4367 282.914 19.3166 283.018C18.8794 283.415 18.4507 283.819 18.0478 284.222C17.9877 284.281 17.9363 284.339 17.8763 284.398C17.5248 284.756 17.1818 285.114 16.8475 285.478C16.7532 285.582 16.6503 285.693 16.556 285.797C16.1959 286.207 15.8444 286.617 15.51 287.027C15.4671 287.073 15.4328 287.125 15.3985 287.177C15.107 287.548 14.8241 287.925 14.5583 288.302C14.4812 288.413 14.404 288.517 14.3269 288.628C14.0439 289.044 13.7696 289.467 13.5124 289.884C13.4867 289.923 13.4695 289.962 13.4438 290.001C13.2123 290.391 13.0065 290.782 12.8008 291.172C12.7493 291.283 12.6893 291.393 12.6379 291.498C12.4321 291.927 12.2349 292.35 12.0635 292.779C12.0549 292.806 12.0463 292.832 12.0377 292.858C11.8748 293.268 11.7377 293.671 11.6176 294.081C11.5833 294.192 11.549 294.302 11.5148 294.413C11.3947 294.849 11.2747 295.285 11.189 295.721C11.189 295.734 11.189 295.747 11.189 295.76C11.1032 296.183 11.0432 296.612 11.0003 297.042C10.9918 297.152 10.9746 297.263 10.966 297.374C10.9232 297.816 10.8975 298.259 10.8975 298.701V345.32C10.8975 337.023 17.722 329.143 29.9821 322.011C45.3715 313.063 69.343 305.306 99.2302 299.43C99.7018 299.339 100.173 299.248 100.645 299.157C101.262 299.04 101.879 298.916 102.505 298.799C102.823 298.74 103.14 298.682 103.457 298.623C104.88 298.356 106.312 298.096 107.761 297.836C107.898 297.81 108.044 297.784 108.181 297.758C113.248 296.86 118.461 296.014 123.819 295.22C156.913 290.32 195.305 287.515 236.26 287.515C237.435 287.515 238.601 287.515 239.767 287.528V240.916H239.776Z" fill="white" fill-opacity="0.1"/>
</g>
<g filter="url(#filter3_b_1057_9652)">
<path d="M364.537 350.721V428.392C423.64 438.795 462.371 456.167 462.371 475.842V398.171C462.371 378.496 423.64 361.124 364.537 350.721Z" fill="white" fill-opacity="0.06"/>
</g>
<path d="M461.871 531.651C461.871 540.092 455.737 548.25 444.356 555.761C432.994 563.259 416.521 570.03 396.12 575.725C355.324 587.112 298.938 594.162 236.634 594.162C174.331 594.162 117.944 587.112 77.1486 575.725C56.7475 570.03 40.274 563.259 28.9124 555.761C17.5309 548.25 11.3975 540.092 11.3975 531.651C11.3975 523.211 17.5309 515.053 28.9124 507.542C40.274 500.044 56.7475 493.272 77.1486 487.578C117.944 476.191 174.331 469.141 236.634 469.141C289.643 469.141 338.373 474.244 376.86 482.782C402.856 488.548 424.152 495.875 438.938 504.238C453.76 512.622 461.871 521.948 461.871 531.651Z" stroke="#FFD807" stroke-opacity="0.2"/>
<path fill-rule="evenodd" clip-rule="evenodd" d="M233.87 205.784C260.802 193.388 257.642 162.12 241.145 118.691C224.649 75.2623 183.291 44.3122 174.128 48.5255C164.966 52.7388 155.204 107.239 171.701 150.668C188.198 194.097 233.868 200.936 233.87 205.784Z" fill="url(#paint0_linear_1057_9652)"/>
<path d="M424.695 112.132C429.325 119.629 404.737 190.309 345.519 207.953C286.3 225.598 266.262 240.656 266.262 240.656C266.262 240.656 295.524 147.57 331.792 116.761C368.061 85.9525 420.074 104.637 424.695 112.132Z" fill="#2D6541"/>
<path d="M424.69 112.137C416.572 115.228 408.623 118.705 400.849 122.52C393.042 126.285 385.378 130.328 377.86 134.603C370.358 138.917 362.967 143.431 355.793 148.25C348.609 153.059 341.549 158.06 334.79 163.449C333.059 164.75 331.406 166.134 329.727 167.496C328.055 168.869 326.36 170.202 324.749 171.637L319.846 175.88L315.071 180.258C308.753 186.144 302.638 192.277 296.895 198.741L294.717 201.149C293.997 201.955 293.32 202.804 292.618 203.622L288.446 208.589L284.447 213.705L282.452 216.264L280.554 218.898C275.297 225.797 270.798 233.224 266.254 240.638L269.299 234.869L270.844 231.992L272.505 229.183L275.854 223.577L279.425 218.106L281.229 215.377L283.148 212.726L286.994 207.434L291.059 202.305C291.746 201.457 292.406 200.588 293.11 199.752L295.238 197.272C306.535 183.959 319.35 171.987 333.049 161.198C346.791 150.451 361.468 140.931 376.797 132.656C384.462 128.509 392.3 124.719 400.277 121.236C404.265 119.508 408.308 117.88 412.363 116.33C416.427 114.78 420.519 113.327 424.694 112.1L424.69 112.137Z" fill="url(#paint1_linear_1057_9652)"/>
<path d="M424.69 112.137C416.572 115.228 408.623 118.705 400.849 122.52C393.042 126.284 385.378 130.328 377.86 134.603C370.358 138.917 362.968 143.431 355.793 148.25C348.61 153.059 341.549 158.059 334.79 163.448C333.06 164.749 331.406 166.133 329.727 167.496C328.056 168.869 326.36 170.201 324.749 171.636L319.846 175.879L315.071 180.257C308.754 186.144 302.638 192.277 296.896 198.74L294.718 201.148C293.998 201.955 293.321 202.803 292.618 203.621L288.446 208.588L284.447 213.705L282.453 216.263L280.554 218.898C275.297 225.796 270.799 233.224 266.255 240.637C266.255 240.637 286.302 225.57 345.509 207.935C404.725 190.291 429.313 119.613 424.682 112.117L424.69 112.137Z" fill="url(#paint2_linear_1057_9652)"/>
<path fill-rule="evenodd" clip-rule="evenodd" d="M307.861 47.4459C295.753 44.2379 234.344 77.1356 219.679 132.975C205.014 188.814 240.17 243.586 240.17 243.586C240.17 243.586 303.549 202.516 317.25 150.359C330.951 98.2025 314.398 49.1736 307.861 47.4459Z" fill="url(#paint3_linear_1057_9652)"/>
<path d="M307.885 47.4268C302.084 54.1241 296.562 61.0477 291.394 68.2237C286.181 75.367 281.305 82.7422 276.76 90.3014C275.657 92.2134 274.482 94.0805 273.434 96.0169L270.269 101.815C269.238 103.762 268.306 105.757 267.33 107.729C266.855 108.721 266.344 109.7 265.896 110.704L264.589 113.73L263.283 116.755L262.625 118.267L262.049 119.807L259.763 125.985C259.06 128.059 258.493 130.176 257.853 132.276C257.552 133.332 257.196 134.364 256.949 135.435L256.171 138.655C255.072 142.93 254.167 147.251 253.225 151.57C252.767 153.735 252.375 155.907 251.945 158.075L251.315 161.328L250.73 164.595C249.095 173.285 247.821 182.048 246.509 190.808C245.244 199.572 244.119 208.359 243.067 217.164C241.959 225.963 241.048 234.781 240.155 243.601C240.808 225.867 242.214 208.151 244.329 190.515C246.473 172.882 249.206 155.298 253.434 137.977L254.233 134.731C254.49 133.651 254.868 132.583 255.172 131.508C255.834 129.373 256.434 127.203 257.161 125.083L259.523 118.8L260.12 117.234L260.799 115.705L262.165 112.648L263.541 109.591C264.008 108.58 264.548 107.603 265.042 106.604C266.067 104.627 267.038 102.617 268.116 100.665L271.414 94.8523C272.52 92.9122 273.749 91.06 274.908 89.1629C284.389 74.1022 295.468 60.0791 307.885 47.4268Z" fill="#9DCF7B"/>
<path d="M307.853 47.4259C302.054 54.1229 296.535 61.046 291.369 68.2216C286.159 75.3644 281.285 82.7391 276.741 90.2979C275.639 92.2097 274.465 94.0768 273.417 96.0129L270.254 101.81C269.223 103.758 268.292 105.753 267.316 107.724C266.841 108.716 266.33 109.695 265.882 110.699L264.576 113.725L263.27 116.75L262.613 118.262L262.037 119.801L259.752 125.979C259.049 128.053 258.483 130.17 257.843 132.269C257.542 133.326 257.186 134.358 256.939 135.429L256.162 138.649C255.063 142.923 254.159 147.244 253.217 151.562C252.759 153.727 252.367 155.899 251.938 158.067L251.308 161.32L250.724 164.587C249.089 173.276 247.815 182.039 246.504 190.798C245.24 199.561 244.115 208.348 243.064 217.152C241.956 225.95 241.045 234.768 240.153 243.588C240.153 243.588 303.557 202.513 317.264 150.351C330.942 98.1866 314.393 49.1538 307.853 47.4259Z" fill="url(#paint4_linear_1057_9652)"/>
<path fill-rule="evenodd" clip-rule="evenodd" d="M227.521 493.427C305.117 501.143 370.263 484.812 380.306 382.387C390.349 279.963 335.66 189.66 258.064 181.943C180.467 174.227 109.352 252.018 99.3082 354.443C89.2648 456.868 149.924 485.71 227.521 493.427Z" fill="url(#paint5_linear_1057_9652)"/>
<path d="M258.161 181.904C244.802 181.239 234.906 201.259 229.905 211.619C212.368 251.204 204.374 294.354 198.306 337.024C195.428 358.46 193.273 380.024 192.472 401.647C191.922 425.421 191.399 454.215 202.202 475.829C207.273 485.809 216.329 492.425 227.571 493.504C211.335 492.326 202.085 480.768 197.2 466.195C190.594 445.395 190.345 423.214 190.843 401.599C191.566 379.911 193.632 358.291 196.442 336.782C202.654 293.984 210.858 250.714 229.074 211.234C234.399 200.755 244.661 180.941 258.16 181.914L258.161 181.904Z" fill="#E2AD13"/>
<path d="M258.161 181.904C248.037 180.332 238.446 195.252 234.044 202.892C228.471 212.647 224.181 223.086 220.333 233.635C205.333 276.06 197.131 320.681 193.218 365.454C191.423 387.876 190.477 410.41 191.289 432.902C190.136 410.414 190.841 387.846 192.6 365.402C196.202 320.532 204.424 275.809 219.75 233.416C223.655 222.863 227.993 212.42 233.652 202.655C238.217 194.993 248.012 180.206 258.171 181.896L258.161 181.904Z" fill="white" fill-opacity="0.5"/>
<path fill-rule="evenodd" clip-rule="evenodd" d="M194.317 332.588C218.831 336.568 224.756 345.655 223.691 351.241C222.625 356.828 211.169 374.578 185.957 369.736C163.392 365.402 170.432 335.958 170.432 335.958C171.622 329.676 194.317 332.588 194.317 332.588Z" fill="url(#paint6_linear_1057_9652)"/>
<path fill-rule="evenodd" clip-rule="evenodd" d="M223.685 351.24C223.818 350.554 223.833 349.819 223.738 349.055C220.145 346.478 214.232 344.095 205.065 342.606C205.065 342.606 186.977 340.286 186.025 345.289C186.025 345.289 181.538 364.16 193.582 370.543C213.493 370.892 222.744 356.226 223.685 351.24Z" fill="url(#paint7_linear_1057_9652)"/>
<path d="M210.795 366.385L174.264 360.342C173.836 362.921 175.127 366.361 182.864 368.946C194.783 372.776 206.07 369.392 210.795 366.385Z" fill="white"/>
<path fill-rule="evenodd" clip-rule="evenodd" d="M223.495 347.833C221.938 342.472 214.314 335.838 194.324 332.594C194.324 332.594 171.793 329.711 170.461 335.897C170.381 338.926 170.622 341.374 171.592 341.565C174.266 342.076 219.849 350.422 222.462 349.041C222.79 348.866 223.134 348.438 223.486 347.832L223.495 347.833Z" fill="white"/>
<path d="M197.365 333.126C219.321 337.343 224.705 345.895 223.691 351.241C222.677 356.588 211.169 374.579 185.957 369.737C163.391 365.403 170.431 335.958 170.431 335.958C171.621 329.675 194.317 332.587 194.317 332.587C195.365 332.757 196.385 332.934 197.365 333.126ZM198.241 328.512C197.214 328.315 196.14 328.123 195.063 327.95L194.988 327.942L194.914 327.935C194.671 327.911 188.852 327.171 182.776 327.227C178.558 327.269 167.406 327.376 165.853 334.964C165.491 336.542 162.018 352.756 169.359 364.137C172.879 369.586 178.169 373.03 185.09 374.352C213.449 379.791 226.872 359.668 228.308 352.126C228.853 349.253 229.968 334.598 198.251 328.513L198.241 328.512Z" fill="url(#paint8_linear_1057_9652)"/>
<path fill-rule="evenodd" clip-rule="evenodd" d="M193.991 334.362C212.895 337.431 220.731 343.53 222.843 348.719C223.053 348.495 223.27 348.205 223.487 347.821C221.929 342.461 214.306 335.827 194.316 332.584C194.316 332.584 171.785 329.701 170.453 335.886C170.448 336.225 170.435 336.554 170.441 336.875C173.461 331.735 193.983 334.352 193.983 334.352L193.991 334.362Z" fill="black" fill-opacity="0.2"/>
<path fill-rule="evenodd" clip-rule="evenodd" d="M143.189 263.512C143.189 263.512 158.572 246.902 171.862 257.934C185.151 268.966 197.916 306.446 204.206 328.775C210.496 351.105 132.327 339.683 132.327 339.683L143.189 263.512Z" fill="url(#paint9_linear_1057_9652)"/>
<path fill-rule="evenodd" clip-rule="evenodd" d="M157.03 256.458C157.03 256.458 138.04 257.562 133.83 284.176C129.621 310.79 157.487 317.957 164.767 319.419L157.03 256.458Z" fill="url(#paint10_linear_1057_9652)"/>
<path d="M178.618 285.774C181.603 272.28 174.771 259.276 163.359 256.727C151.948 254.179 140.277 263.051 137.293 276.545C134.309 290.038 141.141 303.043 152.553 305.591C163.964 308.14 175.634 299.267 178.618 285.774Z" fill="white"/>
<path fill-rule="evenodd" clip-rule="evenodd" d="M171.559 260.829C175.81 266.428 177.619 274.437 175.808 282.625C172.818 296.116 161.144 304.992 149.73 302.439C146.694 301.759 143.976 300.336 141.69 298.361C144.446 301.988 148.216 304.611 152.709 305.616C164.123 308.17 175.798 299.293 178.788 285.802C180.983 275.906 177.882 266.266 171.568 260.83L171.559 260.829Z" fill="#CCCCCC"/>
<path d="M167.599 281.159C169.506 272.535 165.139 264.223 157.845 262.594C150.551 260.965 143.092 266.636 141.185 275.26C139.278 283.884 143.645 292.196 150.939 293.825C158.233 295.454 165.692 289.783 167.599 281.159Z" fill="#231F20"/>
<path d="M164.792 278.009C167.528 277.826 169.569 275.051 169.35 271.811C169.131 268.571 166.736 266.092 163.999 266.275C161.263 266.457 159.222 269.232 159.441 272.472C159.66 275.713 162.055 278.191 164.792 278.009Z" fill="white"/>
<path d="M153.573 273.045C154.785 273.189 155.904 272.145 156.072 270.713C156.239 269.28 155.392 268.003 154.18 267.859C152.967 267.715 151.849 268.759 151.681 270.191C151.513 271.623 152.36 272.901 153.573 273.045Z" fill="white"/>
<path d="M156.154 277.617C156.828 277.697 157.45 277.117 157.543 276.322C157.636 275.526 157.165 274.816 156.492 274.736C155.818 274.656 155.196 275.236 155.103 276.032C155.01 276.828 155.481 277.537 156.154 277.617Z" fill="white"/>
<path d="M355.785 375.991C359.794 327.26 355.537 275.534 333.598 231.178C329.227 222.533 323.715 213.888 317.073 206.369C315.896 205.477 314.708 204.594 313.671 203.82C315.542 205.811 317.32 207.887 318.997 210.037C352.596 254.437 358.416 321.879 353.97 375.839C350.924 409.757 343.424 451.566 317.801 475.9C308.494 484.857 296.606 490.602 284.072 493.494C286.011 493.262 288.066 492.994 290.154 492.682C300.697 489.591 310.571 484.374 318.613 476.764C345.005 452.186 352.52 410.511 355.785 375.991Z" fill="#E2AD13"/>
<path fill-rule="evenodd" clip-rule="evenodd" d="M248.642 278.009C248.642 278.009 267.431 257.715 283.667 271.203C299.903 284.691 315.496 330.462 323.169 357.736C330.842 385.01 235.374 371.054 235.374 371.054L248.642 278.009Z" fill="url(#paint11_linear_1057_9652)"/>
<path fill-rule="evenodd" clip-rule="evenodd" d="M265.545 269.4C265.545 269.4 242.353 270.746 237.207 303.256C232.062 335.765 266.102 344.52 274.991 346.302L265.545 269.4Z" fill="url(#paint12_linear_1057_9652)"/>
<path d="M291.919 305.197C295.564 288.713 287.218 272.827 273.277 269.714C259.336 266.601 245.08 277.439 241.435 293.922C237.79 310.405 246.136 326.291 260.077 329.404C274.017 332.518 288.274 321.68 291.919 305.197Z" fill="white"/>
<path fill-rule="evenodd" clip-rule="evenodd" d="M283.288 274.732C288.473 281.577 290.685 291.345 288.47 301.353C284.819 317.838 270.567 328.668 256.615 325.559C252.906 324.727 249.587 322.99 246.796 320.577C250.162 325.011 254.77 328.218 260.251 329.444C274.193 332.561 288.455 321.723 292.106 305.238C294.78 293.141 290.991 281.383 283.287 274.742L283.288 274.732Z" fill="#CCCCCC"/>
<path d="M278.462 299.569C280.791 289.034 275.455 278.881 266.542 276.89C257.629 274.9 248.515 281.826 246.186 292.36C243.856 302.895 249.193 313.048 258.105 315.039C267.018 317.029 276.132 310.103 278.462 299.569Z" fill="#231F20"/>
<path d="M275.015 295.734C278.356 295.511 280.847 292.12 280.579 288.159C280.312 284.198 277.387 281.167 274.047 281.39C270.706 281.613 268.215 285.005 268.483 288.966C268.75 292.927 271.675 295.957 275.015 295.734Z" fill="white"/>
<path d="M264.547 292.104C265.76 292.248 266.878 291.204 267.046 289.772C267.214 288.339 266.366 287.062 265.154 286.918C263.941 286.773 262.823 287.818 262.655 289.25C262.487 290.682 263.335 291.96 264.547 292.104Z" fill="white"/>
<path d="M267.129 296.676C267.802 296.756 268.424 296.176 268.517 295.38C268.61 294.585 268.139 293.875 267.466 293.795C266.792 293.715 266.171 294.295 266.078 295.091C265.984 295.886 266.455 296.596 267.129 296.676Z" fill="white"/>
<path opacity="0.22" d="M274.448 199.663C274.441 198.104 273.179 196.846 271.623 196.861C270.689 196.863 255.081 197.076 232.11 204.913C218.152 197.615 208.625 194.921 207.955 194.741C206.45 194.327 204.912 195.213 204.501 196.711C204.09 198.209 204.975 199.76 206.47 200.173C206.607 200.215 213.787 202.251 224.789 207.583C216.05 210.982 206.46 215.457 196.354 221.353C195.015 222.136 194.562 223.866 195.345 225.208C195.821 226.021 196.631 226.507 197.499 226.593C198.068 226.65 198.654 226.538 199.194 226.224C210.99 219.334 222.076 214.489 231.636 211.087C240.927 216.099 252.02 223.102 263.558 232.68C264.002 233.054 264.538 233.259 265.07 233.312C265.966 233.401 266.894 233.059 267.515 232.309C268.508 231.114 268.334 229.331 267.14 228.344C257.083 219.999 247.432 213.573 238.941 208.67C243.256 207.343 247.164 206.315 250.528 205.545C263.466 202.583 271.588 202.494 271.664 202.492C273.219 202.486 274.466 201.213 274.458 199.663L274.448 199.663Z" fill="#9C620B"/>
<path opacity="0.22" d="M326.144 433.903C312.428 429.885 301.687 423.5 293.358 416.552C306.418 401.881 312.167 388.91 312.519 388.105C313.14 386.675 312.482 385.023 311.064 384.391C309.646 383.768 307.98 384.414 307.359 385.845C307.274 386.035 301.689 398.587 289.101 412.767C273.424 397.892 268.02 381.97 267.919 381.658C267.442 380.175 265.853 379.366 264.374 379.842C262.894 380.318 262.088 381.909 262.565 383.392C262.919 384.485 268.563 401.328 285.171 416.994C279.499 422.833 272.658 428.773 264.53 434.094C263.231 434.947 262.861 436.695 263.714 437.998C264.197 438.745 264.974 439.181 265.795 439.263C266.411 439.324 267.048 439.179 267.611 438.82C276.251 433.172 283.473 426.911 289.428 420.77C298.289 428.168 309.79 434.968 324.568 439.309C324.741 439.364 324.909 439.39 325.086 439.407C326.402 439.538 327.671 438.711 328.055 437.389C328.494 435.893 327.63 434.325 326.145 433.894L326.144 433.903Z" fill="#9C620B"/>
<path opacity="0.22" d="M134.432 417.011C125.796 411.052 119.313 404.013 114.488 397.271C123.042 387.231 131.827 380.416 131.979 380.299C133.213 379.355 133.443 377.583 132.499 376.346C131.555 375.109 129.787 374.877 128.554 375.822C128.279 376.03 121.813 381.017 114.384 388.911C113.289 390.077 112.243 391.229 111.234 392.385C104.154 380.951 101.844 371.437 101.791 371.205C101.44 369.687 99.9303 368.744 98.4169 369.084C98.3982 369.082 98.3777 369.099 98.3581 369.107C98.2842 371.687 98.2377 375.045 98.3107 378.916C99.9772 383.455 102.819 389.943 107.39 396.981C104.925 400.098 102.784 403.191 100.93 406.237C101.457 409.028 102.091 411.793 102.845 414.484C105.016 410.034 107.791 405.767 110.768 401.85C115.816 408.624 122.484 415.606 131.225 421.642C131.631 421.918 132.086 422.086 132.544 422.132C133.533 422.23 134.537 421.801 135.141 420.926C136.021 419.644 135.694 417.883 134.414 417L134.432 417.011Z" fill="#9C620B"/>
<g style="mix-blend-mode:overlay" opacity="0.5">
<path fill-rule="evenodd" clip-rule="evenodd" d="M378.98 393.429C379.635 388.092 380.248 382.515 380.823 376.651C382.406 355.503 381.227 334.95 377.687 315.587C376.738 310.554 375.701 305.851 374.652 301.554C374.619 301.409 374.585 301.273 374.552 301.129C374.782 302.625 386.52 382.469 303.464 434.366C228.652 481.115 162.935 466.147 122.051 450.739C124.207 453.258 126.5 455.639 128.908 457.899C129.011 458.004 129.124 458.1 129.237 458.197C129.92 458.822 130.604 459.447 131.307 460.055C131.463 460.193 131.62 460.322 131.777 460.461C132.446 461.037 133.117 461.595 133.797 462.154C133.963 462.293 134.137 462.433 134.313 462.564C135.004 463.114 135.704 463.666 136.415 464.199C136.573 464.319 136.721 464.437 136.879 464.557C137.652 465.134 138.426 465.702 139.22 466.253C139.317 466.32 139.405 466.385 139.502 466.451C142.237 468.357 145.078 470.151 148.024 471.823C148.069 471.846 148.114 471.869 148.158 471.902C149.068 472.417 149.981 472.914 150.903 473.412C151.073 473.505 151.244 473.588 151.414 473.68C152.23 474.111 153.047 474.522 153.864 474.934C154.08 475.041 154.305 475.148 154.521 475.255C155.312 475.645 156.113 476.027 156.925 476.4C157.16 476.509 157.385 476.616 157.619 476.724C158.44 477.099 159.271 477.465 160.103 477.831C160.31 477.927 160.528 478.015 160.735 478.111C161.648 478.504 162.564 478.878 163.488 479.253C163.624 479.305 163.751 479.364 163.878 479.415C167.125 480.71 170.457 481.911 173.873 483.025C174.056 483.081 174.239 483.137 174.412 483.192C175.344 483.492 176.287 483.784 177.23 484.067C177.504 484.151 177.788 484.236 178.063 484.32C178.914 484.574 179.776 484.821 180.647 485.068C180.968 485.156 181.29 485.245 181.611 485.334C182.455 485.569 183.3 485.794 184.145 486.02C184.475 486.11 184.797 486.189 185.128 486.278C186.001 486.507 186.876 486.717 187.75 486.936C188.053 487.013 188.358 487.081 188.661 487.159C189.628 487.387 190.596 487.615 191.573 487.835C191.785 487.885 192.006 487.935 192.218 487.984C194.653 488.529 197.121 489.029 199.619 489.504C199.758 489.528 199.888 489.55 200.026 489.582C201.109 489.785 202.192 489.987 203.286 490.171C203.619 490.233 203.963 490.286 204.296 490.347C205.195 490.503 206.095 490.649 207.004 490.796C207.403 490.864 207.812 490.923 208.211 490.982C209.066 491.114 209.91 491.245 210.774 491.379C211.201 491.44 211.638 491.502 212.066 491.564C212.912 491.686 213.767 491.808 214.623 491.922C215.05 491.983 215.469 492.034 215.897 492.096C216.79 492.213 217.674 492.329 218.578 492.438C218.969 492.486 219.36 492.535 219.742 492.582C220.748 492.701 221.764 492.821 222.78 492.931C223.051 492.958 223.331 492.986 223.601 493.022C224.907 493.162 226.222 493.302 227.547 493.434C227.594 493.438 227.641 493.443 227.688 493.448C302.337 500.843 365.423 485.924 378.961 393.427L378.98 393.429Z" fill="#7B3B00"/>
</g>
<ellipse cx="24.9233" cy="6.47051" rx="24.9233" ry="6.47051" transform="matrix(0.991361 -0.129451 0.129396 0.991817 256.871 342.407)" fill="#FF6162" fill-opacity="0.4"/>
<ellipse cx="16.6119" cy="5.33481" rx="16.6119" ry="5.33481" transform="matrix(0.87347 0.487637 -0.484954 0.874118 122.881 305.151)" fill="#FF6162" fill-opacity="0.4"/>
<g filter="url(#filter4_b_1057_9652)">
<path d="M407.514 435.261C366.096 447.524 304.846 455.287 236.506 455.287C228.08 455.287 219.767 455.166 211.583 454.934C205.906 454.774 201.181 459.308 201.181 464.988V520.442C201.181 525.809 205.417 530.225 210.782 530.38C219.224 530.625 227.804 530.751 236.506 530.751C361.25 530.751 462.371 504.892 462.371 472.993V397.529C462.371 411.951 441.696 425.137 407.514 435.261Z" fill="white" fill-opacity="0.2"/>
<path d="M448.04 418.421C455.133 413.64 459.912 408.501 461.871 403.089V472.993C461.871 480.687 455.763 488.155 444.363 495.047C432.994 501.921 416.508 508.129 396.093 513.35C355.271 523.789 298.849 530.251 236.506 530.251C227.809 530.251 219.234 530.125 210.796 529.881C205.706 529.733 201.681 525.542 201.681 520.442V464.988C201.681 459.593 206.169 455.281 211.569 455.434C219.758 455.666 228.075 455.787 236.506 455.787C304.876 455.787 366.177 448.021 407.656 435.74L407.54 435.349L407.656 435.74C424.77 430.672 438.539 424.826 448.04 418.421Z" stroke="url(#paint13_linear_1057_9652)"/>
</g>
<g filter="url(#filter5_b_1057_9652)">
<path d="M416.595 464.14C413.617 465.145 410.511 466.125 407.285 467.078C383.513 474.094 353.2 479.632 318.761 483.073V503.747C353.2 500.305 383.513 494.768 407.285 487.751C410.511 486.799 413.617 485.819 416.595 484.814V464.14Z" fill="#FFD807" fill-opacity="0.6"/>
</g>
<ellipse cx="4.34941" cy="5.03278" rx="4.34941" ry="5.03278" transform="matrix(0.995709 0.0925446 -0.0920177 0.995757 325.083 487.647)" fill="white"/>
<path d="M340.303 489.344C349.312 488.662 375.568 485.007 408.517 475.842" stroke="white" stroke-width="2" stroke-linecap="round"/>
<path d="M340.303 493.845C345.274 493.444 355.423 492.091 369.025 489.344" stroke="white" stroke-width="2" stroke-linecap="round"/>
<g filter="url(#filter6_b_1057_9652)">
<path d="M416.595 524.45C413.617 525.456 410.511 526.435 407.285 527.388C383.513 534.404 353.2 539.942 318.761 543.383V564.057C353.2 560.616 383.513 555.078 407.285 548.062C410.511 547.109 413.617 546.129 416.595 545.124V524.45Z" fill="#FFD807" fill-opacity="0.6"/>
</g>
<ellipse cx="4.34941" cy="5.03278" rx="4.34941" ry="5.03278" transform="matrix(0.995709 0.0925446 -0.0920177 0.995757 325.083 547.786)" fill="white"/>
<path d="M340.303 549.654C349.312 548.972 375.568 545.317 408.517 536.152" stroke="white" stroke-width="2" stroke-linecap="round"/>
<path d="M340.303 554.155C345.274 553.754 355.423 552.401 369.025 549.654" stroke="white" stroke-width="2" stroke-linecap="round"/>
<g filter="url(#filter7_b_1057_9652)">
<path d="M416.595 494.745C413.617 495.751 410.511 496.73 407.285 497.683C383.513 504.699 353.2 510.237 318.761 513.678V534.352C353.2 530.911 383.513 525.373 407.285 518.357C410.511 517.404 413.617 516.425 416.595 515.419V494.745Z" fill="#FFD807" fill-opacity="0.6"/>
</g>
<ellipse cx="4.34941" cy="5.03278" rx="4.34941" ry="5.03278" transform="matrix(0.995709 0.0925446 -0.0920177 0.995757 325.083 517.623)" fill="white"/>
<path d="M340.303 519.049C347.607 518.432 366.231 515.633 390.566 509.148" stroke="white" stroke-width="2" stroke-linecap="round"/>
<path d="M340.303 523.55C342.876 523.293 346.846 522.719 351.971 521.75" stroke="white" stroke-width="2" stroke-linecap="round"/>
<g filter="url(#filter8_b_1057_9652)">
<path d="M219.132 514.876C219.132 517.6 221.312 519.824 224.035 519.862C228.182 519.92 232.359 519.95 236.564 519.95C246.048 519.95 255.397 519.803 264.577 519.52C267.266 519.436 269.395 517.227 269.395 514.536V472.926C269.395 470.093 267.044 467.828 264.213 467.914C255.15 468.191 245.923 468.333 236.564 468.333C232.424 468.333 228.312 468.304 224.229 468.248C221.43 468.21 219.132 470.462 219.132 473.262V514.876Z" fill="white" fill-opacity="0.4"/>
</g>
<path d="M236.411 484.322C236.411 480.142 239.739 476.742 243.831 476.742C247.923 476.742 251.251 480.142 251.251 484.322C251.251 488.503 247.923 491.903 243.831 491.903C239.739 491.903 236.411 488.503 236.411 484.322ZM247.524 495.693H240.105C232.573 495.693 229.902 501.327 229.902 506.152C229.902 510.467 232.149 512.748 236.4 512.748H251.229C255.48 512.748 257.727 510.467 257.727 506.152C257.727 501.327 255.056 495.693 247.524 495.693Z" fill="#CEFF07"/>
<g filter="url(#filter9_b_1057_9652)">
<path d="M123.99 356.589C123.99 351.635 120.36 347.438 115.47 346.637C111.26 345.947 107.145 345.223 103.132 344.461C71.4454 338.47 46.0618 330.399 30.0125 321.033C17.7328 313.871 10.8975 305.945 10.8975 297.612V344.467C10.8975 365.259 53.3231 383.496 117.11 393.764C120.728 394.347 123.99 391.536 123.99 387.871V356.589Z" fill="white" fill-opacity="0.2"/>
<path d="M11.3975 303.201V344.467C11.3975 349.482 13.9535 354.399 18.8701 359.138C23.7875 363.877 31.0277 368.399 40.2904 372.607C58.813 381.023 85.3172 388.14 117.189 393.27C120.5 393.803 123.49 391.232 123.49 387.871V356.589C123.49 351.884 120.042 347.892 115.39 347.13C111.176 346.44 107.057 345.715 103.039 344.952C103.039 344.952 103.039 344.952 103.039 344.952L11.3975 303.201ZM11.3975 303.201C13.747 309.725 20.1556 315.863 29.7606 321.465L11.3975 303.201Z" stroke="url(#paint14_linear_1057_9652)"/>
</g>
<path fill-rule="evenodd" clip-rule="evenodd" d="M26.0349 356.782C27.2082 357.546 28.4435 358.303 29.7392 359.051C35.6138 362.444 42.7351 365.667 50.9556 368.68V339.371C40.9236 335.695 32.5273 331.708 26.0349 327.477L26.0349 356.782ZM18.3009 350.788L18.3009 321.483C13.2568 316.699 10.5669 311.669 10.5669 306.479V335.797C10.5669 340.981 13.2594 346.008 18.3009 350.788ZM83.6102 378.226C74.5966 376.109 66.2591 373.809 58.6896 371.348V342.038C66.2595 344.499 74.597 346.798 83.6102 348.914L83.6102 378.226ZM91.3442 379.96C95.1506 380.776 99.0639 381.56 103.078 382.312C107.361 383.117 111.759 383.879 116.265 384.603V355.29C107.537 353.886 99.2123 352.334 91.3442 350.648L91.3442 379.96Z" fill="white" fill-opacity="0.5"/>
<g filter="url(#filter10_b_1057_9652)">
<path d="M53.9804 60.2198C53.9804 57.4614 51.2503 55.5322 48.6755 56.5217C24.8193 65.6895 10.8975 76.7262 10.8975 88.6032V166.19C10.8975 153.458 26.8958 141.692 53.9804 132.158V60.2198Z" fill="white" fill-opacity="0.06"/>
</g>
<g filter="url(#filter11_b_1057_9652)">
<path d="M132.966 148.545C132.966 143.528 129.244 139.296 124.279 138.57C102.146 135.331 82.3745 131.167 65.7839 126.287C31.5831 116.222 10.8975 103.114 10.8975 88.7769V163.797C10.8975 185.29 57.3745 204.025 126.186 213.867C129.775 214.38 132.966 211.58 132.966 207.955V148.545Z" fill="white" fill-opacity="0.2"/>
<path d="M65.6427 126.766L65.6428 126.766C82.2611 131.655 102.056 135.823 124.207 139.064C128.931 139.756 132.466 143.78 132.466 148.545V207.955C132.466 211.28 129.541 213.841 126.257 213.372C91.8725 208.454 63.0978 201.318 42.9331 192.741C32.849 188.452 24.9454 183.813 19.5708 178.933C14.1954 174.052 11.3975 168.976 11.3975 163.797V94.3044C13.3573 99.6859 18.1404 104.796 25.2371 109.549C34.7437 115.917 48.5199 121.728 65.6427 126.766Z" stroke="url(#paint15_linear_1057_9652)"/>
</g>
<path fill-rule="evenodd" clip-rule="evenodd" d="M75.9493 159.953L93.4625 175.321L106.402 153.076C110.993 156.876 114.33 162.678 115.27 169.491C117.093 182.692 109.234 194.69 97.7161 196.29C86.1984 197.89 75.3838 188.485 73.561 175.284C72.7945 169.733 73.7399 164.395 75.9493 159.953Z" fill="white" fill-opacity="0.5"/>
<path d="M114.711 169.208C116.505 182.201 108.767 193.89 97.584 195.443C86.401 196.996 75.7866 187.856 73.9925 174.863C72.1984 161.87 79.9369 150.181 91.1198 148.628C102.303 147.075 112.917 156.215 114.711 169.208Z" stroke="white"/>
<path fill-rule="evenodd" clip-rule="evenodd" d="M105.862 146.856C101.7 143.725 96.6193 142.186 91.3942 142.912C84.4536 143.876 78.8415 148.616 75.876 155.119L92.5464 169.748L105.862 146.856Z" fill="#CEFF07"/>
<path fill-rule="evenodd" clip-rule="evenodd" d="M60.4082 139.337V214.518C47.9763 210.585 37.5345 206.226 29.4722 201.541V126.36C37.5346 131.044 47.9764 135.403 60.4082 139.337Z" fill="white" fill-opacity="0.2"/>
<g filter="url(#filter12_d_1057_9652)">
<path d="M462.371 173.391C462.371 208.191 361.305 236.402 236.634 236.402C111.963 236.402 10.8975 208.191 10.8975 173.391" stroke="#FFD807"/>
</g>
<g filter="url(#filter13_d_1057_9652)">
<path d="M462.371 371.425C462.371 406.224 361.305 434.435 236.634 434.435C111.963 434.435 10.8975 406.224 10.8975 371.425" stroke="#FFD807"/>
</g>
<path d="M385.181 102.989C385.181 104.925 386.987 106.354 388.868 105.894C398.022 103.653 406.596 101.258 414.526 98.7246C415.762 98.3298 416.595 97.1782 416.595 95.8808L416.595 65.0101C416.595 62.9696 414.602 61.5236 412.655 62.1326C404.85 64.5728 396.443 66.8813 387.49 69.0433C386.138 69.3698 385.181 70.5776 385.181 71.9687L385.181 102.989Z" fill="white" fill-opacity="0.5"/>
<path d="M408.228 82.9325L408.241 74.2889C408.241 72.3718 407.302 71.6913 405.416 72.2605L394.097 75.6695C392.218 76.2323 391.272 77.482 391.272 79.3992L391.252 93.8073L394.084 90.0711L405.397 86.6621C407.282 86.0928 408.228 84.8496 408.228 82.9259V82.9325ZM400.686 83.7308L395.969 85.1506C395.467 85.3011 395.062 85.0067 395.062 84.4963C395.062 83.9859 395.473 83.4494 395.976 83.2989L400.693 81.879C401.195 81.7285 401.6 82.023 401.6 82.5333C401.6 83.0437 401.189 83.5803 400.686 83.7308ZM403.518 79.0393L395.976 81.3098C395.473 81.4603 395.069 81.1658 395.069 80.6555C395.069 80.1451 395.48 79.6085 395.982 79.4581L403.524 77.1876C404.027 77.0371 404.431 77.3315 404.431 77.8419C404.431 78.3523 404.02 78.8888 403.518 79.0393ZM413.076 79.831L413.063 92.178L410.642 90.4375L400.947 93.3623C399.336 93.8465 398.527 93.2642 398.527 91.6218V90.9806C398.527 90.7189 398.722 90.5422 398.899 90.4899L405.403 88.5334C408.313 87.6567 410.049 85.3535 410.049 82.3894V78.6467C410.049 78.3588 410.297 78.2018 410.414 78.169L410.662 78.0971C412.273 77.6129 413.082 78.1952 413.082 79.8376L413.076 79.831Z" fill="#CEFF07"/>
<path d="M461.871 63.5726C461.871 72.0133 455.737 80.1707 444.356 87.6818C432.994 95.1799 416.521 101.952 396.12 107.646C355.324 119.034 298.938 126.083 236.634 126.083C174.331 126.083 117.944 119.034 77.1486 107.646C56.7475 101.952 40.274 95.1799 28.9124 87.6818C17.5309 80.1707 11.3975 72.0133 11.3975 63.5726C11.3975 55.1319 17.5309 46.9745 28.9124 39.4634C40.274 31.9653 56.7475 25.1936 77.1486 19.499C117.944 8.11165 174.331 1.06201 236.634 1.06201C289.643 1.06201 338.373 6.1653 376.86 14.7029C402.856 20.4693 424.152 27.7966 438.938 36.1594C453.76 44.5434 461.871 53.8688 461.871 63.5726Z" stroke="#FFD807" stroke-opacity="0.2"/>
<g filter="url(#filter14_b_1057_9652)">
<path d="M398.644 321.339C398.644 325.271 402.368 328.143 406.146 327.049C441.148 316.918 462.371 303.634 462.371 289.09V213.898C462.371 228.268 441.648 241.406 407.386 251.494C406.953 251.621 406.518 251.748 406.08 251.875C401.714 253.137 398.644 257.092 398.644 261.637V321.339Z" fill="white" fill-opacity="0.2"/>
<path d="M407.527 251.973L407.528 251.973C424.681 246.923 438.482 241.099 448.005 234.717C455.117 229.951 459.909 224.828 461.871 219.433V289.09C461.871 296.102 456.75 302.928 447.108 309.307C437.488 315.673 423.486 321.51 406.007 326.569C402.558 327.567 399.144 324.947 399.144 321.339V261.637C399.144 257.322 402.06 253.558 406.219 252.355C406.657 252.228 407.094 252.101 407.527 251.973Z" stroke="url(#paint16_linear_1057_9652)"/>
</g>
<path d="M454.293 246.303C451.196 248.815 447.442 251.253 443.082 253.603V300.034C447.442 297.684 451.196 295.247 454.293 292.735V246.303Z" fill="#FFE34E"/>
<path d="M421.523 309.298C417.973 310.542 414.233 311.748 410.312 312.915V266.483C414.233 265.317 417.973 264.111 421.523 262.867V309.298Z" fill="#FFE34E"/>
<path d="M437.908 302.649C434.466 304.284 430.722 305.871 426.697 307.407V260.975C430.723 259.44 434.466 257.852 437.908 256.218V302.649Z" fill="#FFE34E"/>
<defs>
<filter id="filter0_d_1057_9652" x="0.397461" y="99.8809" width="472.474" height="83.5107" filterUnits="userSpaceOnUse" color-interpolation-filters="sRGB">
<feFlood flood-opacity="0" result="BackgroundImageFix"/>
<feColorMatrix in="SourceAlpha" type="matrix" values="0 0 0 0 0 0 0 0 0 0 0 0 0 0 0 0 0 0 127 0" result="hardAlpha"/>
<feOffset/>
<feGaussianBlur stdDeviation="5"/>
<feComposite in2="hardAlpha" operator="out"/>
<feColorMatrix type="matrix" values="0 0 0 0 0.807843 0 0 0 0 1 0 0 0 0 0.027451 0 0 0 1 0"/>
<feBlend mode="normal" in2="BackgroundImageFix" result="effect1_dropShadow_1057_9652"/>
<feBlend mode="normal" in="SourceGraphic" in2="effect1_dropShadow_1057_9652" result="shape"/>
</filter>
<filter id="filter1_d_1057_9652" x="0.397461" y="297.914" width="472.474" height="83.5105" filterUnits="userSpaceOnUse" color-interpolation-filters="sRGB">
<feFlood flood-opacity="0" result="BackgroundImageFix"/>
<feColorMatrix in="SourceAlpha" type="matrix" values="0 0 0 0 0 0 0 0 0 0 0 0 0 0 0 0 0 0 127 0" result="hardAlpha"/>
<feOffset/>
<feGaussianBlur stdDeviation="5"/>
<feComposite in2="hardAlpha" operator="out"/>
<feColorMatrix type="matrix" values="0 0 0 0 0.807843 0 0 0 0 1 0 0 0 0 0.027451 0 0 0 1 0"/>
<feBlend mode="normal" in2="BackgroundImageFix" result="effect1_dropShadow_1057_9652"/>
<feBlend mode="normal" in="SourceGraphic" in2="effect1_dropShadow_1057_9652" result="shape"/>
</filter>
<filter id="filter2_b_1057_9652" x="-3.10254" y="226.903" width="256.878" height="132.417" filterUnits="userSpaceOnUse" color-interpolation-filters="sRGB">
<feFlood flood-opacity="0" result="BackgroundImageFix"/>
<feGaussianBlur in="BackgroundImageFix" stdDeviation="7"/>
<feComposite in2="SourceAlpha" operator="in" result="effect1_backgroundBlur_1057_9652"/>
<feBlend mode="normal" in="SourceGraphic" in2="effect1_backgroundBlur_1057_9652" result="shape"/>
</filter>
<filter id="filter3_b_1057_9652" x="350.537" y="336.721" width="125.834" height="153.121" filterUnits="userSpaceOnUse" color-interpolation-filters="sRGB">
<feFlood flood-opacity="0" result="BackgroundImageFix"/>
<feGaussianBlur in="BackgroundImageFix" stdDeviation="7"/>
<feComposite in2="SourceAlpha" operator="in" result="effect1_backgroundBlur_1057_9652"/>
<feBlend mode="normal" in="SourceGraphic" in2="effect1_backgroundBlur_1057_9652" result="shape"/>
</filter>
<filter id="filter4_b_1057_9652" x="187.181" y="383.529" width="289.19" height="161.222" filterUnits="userSpaceOnUse" color-interpolation-filters="sRGB">
<feFlood flood-opacity="0" result="BackgroundImageFix"/>
<feGaussianBlur in="BackgroundImageFix" stdDeviation="7"/>
<feComposite in2="SourceAlpha" operator="in" result="effect1_backgroundBlur_1057_9652"/>
<feBlend mode="normal" in="SourceGraphic" in2="effect1_backgroundBlur_1057_9652" result="shape"/>
</filter>
<filter id="filter5_b_1057_9652" x="315.761" y="461.14" width="103.834" height="45.6067" filterUnits="userSpaceOnUse" color-interpolation-filters="sRGB">
<feFlood flood-opacity="0" result="BackgroundImageFix"/>
<feGaussianBlur in="BackgroundImageFix" stdDeviation="1.5"/>
<feComposite in2="SourceAlpha" operator="in" result="effect1_backgroundBlur_1057_9652"/>
<feBlend mode="normal" in="SourceGraphic" in2="effect1_backgroundBlur_1057_9652" result="shape"/>
</filter>
<filter id="filter6_b_1057_9652" x="315.761" y="521.45" width="103.834" height="45.6067" filterUnits="userSpaceOnUse" color-interpolation-filters="sRGB">
<feFlood flood-opacity="0" result="BackgroundImageFix"/>
<feGaussianBlur in="BackgroundImageFix" stdDeviation="1.5"/>
<feComposite in2="SourceAlpha" operator="in" result="effect1_backgroundBlur_1057_9652"/>
<feBlend mode="normal" in="SourceGraphic" in2="effect1_backgroundBlur_1057_9652" result="shape"/>
</filter>
<filter id="filter7_b_1057_9652" x="315.761" y="491.745" width="103.834" height="45.6067" filterUnits="userSpaceOnUse" color-interpolation-filters="sRGB">
<feFlood flood-opacity="0" result="BackgroundImageFix"/>
<feGaussianBlur in="BackgroundImageFix" stdDeviation="1.5"/>
<feComposite in2="SourceAlpha" operator="in" result="effect1_backgroundBlur_1057_9652"/>
<feBlend mode="normal" in="SourceGraphic" in2="effect1_backgroundBlur_1057_9652" result="shape"/>
</filter>
<filter id="filter8_b_1057_9652" x="205.132" y="453.912" width="78.2637" height="80.0378" filterUnits="userSpaceOnUse" color-interpolation-filters="sRGB">
<feFlood flood-opacity="0" result="BackgroundImageFix"/>
<feGaussianBlur in="BackgroundImageFix" stdDeviation="7"/>
<feComposite in2="SourceAlpha" operator="in" result="effect1_backgroundBlur_1057_9652"/>
<feBlend mode="normal" in="SourceGraphic" in2="effect1_backgroundBlur_1057_9652" result="shape"/>
</filter>
<filter id="filter9_b_1057_9652" x="-3.10254" y="283.612" width="141.093" height="124.229" filterUnits="userSpaceOnUse" color-interpolation-filters="sRGB">
<feFlood flood-opacity="0" result="BackgroundImageFix"/>
<feGaussianBlur in="BackgroundImageFix" stdDeviation="7"/>
<feComposite in2="SourceAlpha" operator="in" result="effect1_backgroundBlur_1057_9652"/>
<feBlend mode="normal" in="SourceGraphic" in2="effect1_backgroundBlur_1057_9652" result="shape"/>
</filter>
<filter id="filter10_b_1057_9652" x="-3.10254" y="42.2588" width="71.083" height="137.931" filterUnits="userSpaceOnUse" color-interpolation-filters="sRGB">
<feFlood flood-opacity="0" result="BackgroundImageFix"/>
<feGaussianBlur in="BackgroundImageFix" stdDeviation="7"/>
<feComposite in2="SourceAlpha" operator="in" result="effect1_backgroundBlur_1057_9652"/>
<feBlend mode="normal" in="SourceGraphic" in2="effect1_backgroundBlur_1057_9652" result="shape"/>
</filter>
<filter id="filter11_b_1057_9652" x="-3.10254" y="74.7769" width="150.068" height="153.151" filterUnits="userSpaceOnUse" color-interpolation-filters="sRGB">
<feFlood flood-opacity="0" result="BackgroundImageFix"/>
<feGaussianBlur in="BackgroundImageFix" stdDeviation="7"/>
<feComposite in2="SourceAlpha" operator="in" result="effect1_backgroundBlur_1057_9652"/>
<feBlend mode="normal" in="SourceGraphic" in2="effect1_backgroundBlur_1057_9652" result="shape"/>
</filter>
<filter id="filter12_d_1057_9652" x="0.397461" y="163.391" width="472.474" height="83.5105" filterUnits="userSpaceOnUse" color-interpolation-filters="sRGB">
<feFlood flood-opacity="0" result="BackgroundImageFix"/>
<feColorMatrix in="SourceAlpha" type="matrix" values="0 0 0 0 0 0 0 0 0 0 0 0 0 0 0 0 0 0 127 0" result="hardAlpha"/>
<feOffset/>
<feGaussianBlur stdDeviation="5"/>
<feComposite in2="hardAlpha" operator="out"/>
<feColorMatrix type="matrix" values="0 0 0 0 0.807843 0 0 0 0 1 0 0 0 0 0.027451 0 0 0 1 0"/>
<feBlend mode="normal" in2="BackgroundImageFix" result="effect1_dropShadow_1057_9652"/>
<feBlend mode="normal" in="SourceGraphic" in2="effect1_dropShadow_1057_9652" result="shape"/>
</filter>
<filter id="filter13_d_1057_9652" x="0.397461" y="361.425" width="472.474" height="83.5105" filterUnits="userSpaceOnUse" color-interpolation-filters="sRGB">
<feFlood flood-opacity="0" result="BackgroundImageFix"/>
<feColorMatrix in="SourceAlpha" type="matrix" values="0 0 0 0 0 0 0 0 0 0 0 0 0 0 0 0 0 0 127 0" result="hardAlpha"/>
<feOffset/>
<feGaussianBlur stdDeviation="5"/>
<feComposite in2="hardAlpha" operator="out"/>
<feColorMatrix type="matrix" values="0 0 0 0 0.807843 0 0 0 0 1 0 0 0 0 0.027451 0 0 0 1 0"/>
<feBlend mode="normal" in2="BackgroundImageFix" result="effect1_dropShadow_1057_9652"/>
<feBlend mode="normal" in="SourceGraphic" in2="effect1_dropShadow_1057_9652" result="shape"/>
</filter>
<filter id="filter14_b_1057_9652" x="384.644" y="199.898" width="91.7271" height="141.386" filterUnits="userSpaceOnUse" color-interpolation-filters="sRGB">
<feFlood flood-opacity="0" result="BackgroundImageFix"/>
<feGaussianBlur in="BackgroundImageFix" stdDeviation="7"/>
<feComposite in2="SourceAlpha" operator="in" result="effect1_backgroundBlur_1057_9652"/>
<feBlend mode="normal" in="SourceGraphic" in2="effect1_backgroundBlur_1057_9652" result="shape"/>
</filter>
<linearGradient id="paint0_linear_1057_9652" x1="193.61" y1="34.6428" x2="214.742" y2="209.354" gradientUnits="userSpaceOnUse">
<stop stop-color="#5CA568"/>
<stop offset="1" stop-color="#05220A"/>
</linearGradient>
<linearGradient id="paint1_linear_1057_9652" x1="334.098" y1="136.559" x2="356.749" y2="215.851" gradientUnits="userSpaceOnUse">
<stop stop-color="#619C5D"/>
<stop offset="1" stop-color="#4FA257"/>
</linearGradient>
<linearGradient id="paint2_linear_1057_9652" x1="456.686" y1="110.659" x2="327.22" y2="195.843" gradientUnits="userSpaceOnUse">
<stop stop-color="#36744B"/>
<stop offset="1" stop-color="#4FA257"/>
</linearGradient>
<linearGradient id="paint3_linear_1057_9652" x1="298.018" y1="66.189" x2="230.276" y2="237.926" gradientUnits="userSpaceOnUse">
<stop stop-color="#2D6542"/>
<stop offset="0.27" stop-color="#438554"/>
<stop offset="0.55" stop-color="#55A062"/>
<stop offset="0.81" stop-color="#61B06B"/>
<stop offset="1" stop-color="#65B66F"/>
</linearGradient>
<linearGradient id="paint4_linear_1057_9652" x1="240.733" y1="252.11" x2="324.938" y2="53.4776" gradientUnits="userSpaceOnUse">
<stop stop-color="#3C7E4F"/>
<stop offset="0.14" stop-color="#55985C"/>
<stop offset="0.31" stop-color="#6DB169"/>
<stop offset="0.46" stop-color="#7BC071"/>
<stop offset="0.58" stop-color="#81C674"/>
<stop offset="0.68" stop-color="#7CC171"/>
<stop offset="0.78" stop-color="#70B46B"/>
<stop offset="0.88" stop-color="#5B9F60"/>
<stop offset="0.99" stop-color="#3F8150"/>
<stop offset="1" stop-color="#3C7E4F"/>
</linearGradient>
<linearGradient id="paint5_linear_1057_9652" x1="263.037" y1="237.55" x2="213.257" y2="493.198" gradientUnits="userSpaceOnUse">
<stop stop-color="#FFE24E"/>
<stop offset="1" stop-color="#D89B00"/>
</linearGradient>
<linearGradient id="paint6_linear_1057_9652" x1="198.598" y1="335.432" x2="191.846" y2="370.614" gradientUnits="userSpaceOnUse">
<stop stop-color="#D57675"/>
<stop offset="1" stop-color="#BC4C52"/>
</linearGradient>
<linearGradient id="paint7_linear_1057_9652" x1="172.966" y1="352.568" x2="217.672" y2="353.825" gradientUnits="userSpaceOnUse">
<stop stop-color="#BC4C52"/>
<stop offset="1" stop-color="#5E2A30"/>
</linearGradient>
<linearGradient id="paint8_linear_1057_9652" x1="199.853" y1="328.824" x2="192.68" y2="371.084" gradientUnits="userSpaceOnUse">
<stop stop-color="#FFE16F"/>
<stop offset="1" stop-color="#F7CC5D" stop-opacity="0"/>
</linearGradient>
<linearGradient id="paint9_linear_1057_9652" x1="156.845" y1="257.902" x2="166.557" y2="322.876" gradientUnits="userSpaceOnUse">
<stop stop-color="#FFF5C8"/>
<stop offset="1" stop-color="#FFC73D" stop-opacity="0"/>
</linearGradient>
<linearGradient id="paint10_linear_1057_9652" x1="170.398" y1="306.312" x2="143.617" y2="276.201" gradientUnits="userSpaceOnUse">
<stop stop-color="#FDE46D" stop-opacity="0"/>
<stop offset="1" stop-color="#D09A08"/>
</linearGradient>
<linearGradient id="paint11_linear_1057_9652" x1="265.313" y1="271.16" x2="277.18" y2="350.517" gradientUnits="userSpaceOnUse">
<stop stop-color="#FCF7BC"/>
<stop offset="1" stop-color="#FFC73D" stop-opacity="0"/>
</linearGradient>
<linearGradient id="paint12_linear_1057_9652" x1="281.879" y1="330.289" x2="249.157" y2="293.513" gradientUnits="userSpaceOnUse">
<stop stop-color="#FDE46D" stop-opacity="0"/>
<stop offset="1" stop-color="#CF9908"/>
</linearGradient>
<linearGradient id="paint13_linear_1057_9652" x1="216.216" y1="464.14" x2="477.842" y2="453.9" gradientUnits="userSpaceOnUse">
<stop stop-color="white"/>
<stop offset="1" stop-color="white" stop-opacity="0"/>
</linearGradient>
<linearGradient id="paint14_linear_1057_9652" x1="123.99" y1="375.298" x2="21.2724" y2="336.695" gradientUnits="userSpaceOnUse">
<stop stop-color="white"/>
<stop offset="1" stop-color="white" stop-opacity="0"/>
</linearGradient>
<linearGradient id="paint15_linear_1057_9652" x1="257.183" y1="154.996" x2="-4.57633" y2="144.685" gradientUnits="userSpaceOnUse">
<stop stop-color="white"/>
<stop offset="1" stop-color="white" stop-opacity="0"/>
</linearGradient>
<linearGradient id="paint16_linear_1057_9652" x1="215.645" y1="280.269" x2="477.873" y2="269.944" gradientUnits="userSpaceOnUse">
<stop stop-color="white"/>
<stop offset="1" stop-color="white" stop-opacity="0"/>
</linearGradient>
</defs>
</svg>
